<?xml version="1.0" standalone="no"?>
<!DOCTYPE svg PUBLIC "-//W3C//DTD SVG 20010904//EN"
 "http://www.w3.org/TR/2001/REC-SVG-20010904/DTD/svg10.dtd">
<svg version="1.0" xmlns="http://www.w3.org/2000/svg"
 width="1164.000000pt" height="1280.000000pt" viewBox="0 0 1164.000000 1280.000000"
 preserveAspectRatio="xMidYMid meet">
<metadata>
Created by potrace 1.15, written by Peter Selinger 2001-2017
</metadata>
<g transform="translate(0.000000,1280.000000) scale(0.100000,-0.100000)"
fill="#000000" stroke="none">
<path d="M5323 12637 l-453 -161 0 -987 0 -988 -37 15 c-26 11 -61 15 -118 12
-66 -2 -92 -9 -147 -36 -167 -82 -262 -240 -214 -355 32 -78 135 -119 244 -97
132 27 261 120 313 225 l24 50 5 989 5 989 390 138 c215 76 393 139 398 139 4
0 7 -290 7 -645 0 -355 -2 -645 -4 -645 -2 0 -21 7 -42 16 -65 27 -183 16
-267 -26 -255 -125 -306 -401 -83 -451 140 -31 343 71 421 213 l30 53 3 695
c3 664 -3 1021 -17 1019 -3 0 -210 -73 -458 -162z"/>
<path d="M4110 8994 l0 -640 -47 -35 c-245 -183 -495 -525 -651 -889 -102
-239 -149 -413 -189 -705 -25 -187 -25 -643 1 -805 102 -647 417 -1132 949
-1462 147 -91 327 -175 448 -209 63 -17 119 -34 124 -38 7 -4 -15 -190 -66
-556 -43 -302 -78 -554 -78 -559 -1 -5 -31 -6 -68 -3 -38 3 -142 13 -233 21
-280 26 -681 38 -873 26 -829 -50 -1395 -166 -1717 -351 -90 -53 -264 -194
-345 -281 -200 -216 -286 -412 -302 -690 -4 -78 -3 -108 5 -108 7 0 34 44 61
98 266 530 701 802 1456 911 415 60 783 81 1090 62 300 -19 521 -50 1095 -155
516 -94 719 -116 1112 -116 666 0 1087 68 1786 291 68 21 125 39 127 39 7 0
15 -83 25 -260 24 -404 74 -601 233 -920 57 -116 85 -158 135 -212 162 -171
355 -169 433 4 80 176 -44 588 -265 884 -71 95 -193 215 -379 372 -86 73 -157
134 -157 137 0 2 24 11 53 21 28 9 111 41 183 70 495 201 949 296 1419 297
471 0 857 -75 1325 -260 238 -94 625 -293 813 -417 l27 -18 0 686 0 686 -37
15 c-239 100 -598 184 -887 206 -77 6 -176 14 -220 17 l-79 7 149 124 c277
231 413 387 518 594 58 114 128 317 147 423 57 330 -186 489 -423 276 -63 -57
-112 -131 -182 -277 -144 -297 -192 -498 -216 -910 -10 -178 -17 -241 -26
-232 -2 2 -22 94 -44 205 -64 327 -96 434 -175 592 -81 161 -271 422 -368 505
-251 216 -580 159 -604 -106 -8 -78 10 -145 72 -275 71 -150 152 -269 260
-383 151 -159 297 -257 678 -456 82 -42 147 -78 145 -80 -2 -2 -84 -9 -183
-15 -672 -41 -1368 -216 -2195 -553 -642 -261 -1441 -494 -1925 -561 -138 -19
-424 -41 -432 -33 -4 5 -116 503 -247 1103 l-7 31 168 6 c486 16 976 189 1478
520 153 101 254 185 406 336 171 172 260 287 333 431 64 127 84 216 66 288
-33 134 -172 192 -280 117 -22 -15 -76 -72 -121 -127 -45 -54 -83 -97 -85 -95
-3 2 7 46 21 98 39 146 31 207 -39 286 -95 108 -224 109 -320 3 -54 -59 -77
-114 -102 -237 -40 -201 -108 -306 -238 -367 -133 -64 -263 -84 -416 -67 -236
28 -380 89 -506 215 -48 48 -96 108 -118 147 -107 193 -147 450 -102 659 45
213 125 405 299 721 158 287 183 366 174 549 -7 140 -30 228 -97 366 -88 182
-230 343 -406 460 l-84 56 -2 570 -3 570 -308 -489 c-170 -268 -313 -495 -319
-503 -5 -8 -12 -11 -14 -5 -6 13 -622 987 -629 993 -3 3 -5 -282 -5 -634z
m881 -4828 c79 -14 190 -28 247 -32 l102 -7 1 -81 c0 -45 8 -299 17 -565 l17
-484 -85 7 c-172 12 -452 49 -455 60 -3 10 -56 1088 -55 1128 0 14 5 15 33 7
19 -5 99 -20 178 -33z"/>
<path d="M1283 1695 c-78 -8 -154 -15 -168 -17 -24 -3 -20 -8 47 -65 40 -34
125 -107 188 -163 242 -214 457 -339 760 -441 144 -49 162 -52 255 -53 116 -1
179 16 239 66 112 92 95 254 -38 375 -112 102 -354 220 -563 275 -113 30 -127
31 -348 34 -136 1 -288 -3 -372 -11z"/>
<path d="M905 1674 c-288 -35 -484 -122 -672 -298 -82 -76 -190 -208 -214
-261 -59 -128 30 -244 187 -245 206 -1 387 147 621 505 58 88 127 192 154 232
49 72 55 84 42 82 -5 -1 -57 -7 -118 -15z"/>
<path d="M1039 1633 c-6 -21 -49 -124 -94 -229 -164 -378 -189 -481 -189 -774
1 -233 15 -333 62 -433 136 -291 446 -250 530 70 33 126 45 258 39 436 -8 242
-42 368 -174 652 -41 88 -91 195 -111 238 -20 42 -40 77 -43 77 -4 0 -13 -17
-20 -37z"/>
</g>
</svg>
